<?xml version="1.0" standalone="no"?>
<!DOCTYPE svg PUBLIC "-//W3C//DTD SVG 20010904//EN"
 "http://www.w3.org/TR/2001/REC-SVG-20010904/DTD/svg10.dtd">
<svg version="1.0" xmlns="http://www.w3.org/2000/svg"
 width="100.000000pt" height="100.000000pt" viewBox="0 0 100.000000 100.000000"
 preserveAspectRatio="xMidYMid meet">
<metadata>
Created by potrace 1.14, written by Peter Selinger 2001-2017
</metadata>
<g transform="translate(0.000000,100.000000) scale(0.100000,-0.100000)"
fill="#000000" stroke="none">
<path d="M260 992 c0 -5 -19 -22 -42 -39 -42 -29 -44 -30 -92 -17 -57 15 -79
10 -66 -14 17 -30 33 -77 31 -90 -1 -7 -15 -35 -31 -62 l-29 -49 64 4 c53 3
66 0 81 -16 9 -10 13 -19 8 -20 -90 -7 -88 -19 19 -127 97 -97 98 -98 92 -138
-4 -21 -8 -55 -10 -74 -2 -19 -4 -35 -5 -35 -2 0 -7 -27 -15 -82 -3 -23 -2
-44 2 -46 5 -3 42 12 83 32 41 21 98 48 126 60 l51 22 79 -37 c43 -21 80 -39
82 -40 2 -1 -5 -11 -16 -22 -11 -11 -24 -17 -28 -14 -3 4 -5 0 -2 -8 3 -8 22
-22 44 -30 59 -23 62 -27 80 -86 8 -29 18 -54 22 -54 4 0 23 18 44 41 37 41
38 41 98 37 33 -2 60 0 60 4 0 4 -12 30 -27 57 l-28 49 23 53 c12 29 20 55 17
57 -3 3 -30 0 -60 -7 -59 -13 -59 -13 -123 41 -36 30 -56 93 -39 124 5 11 49
58 97 106 48 47 84 91 81 97 -4 6 -27 13 -51 16 -25 3 -71 10 -102 15 -32 6
-70 12 -85 15 -35 6 -33 3 -100 130 -32 61 -64 110 -71 110 -8 0 -41 -52 -74
-117 l-60 -116 -56 -10 c-31 -6 -59 -8 -61 -6 -2 1 -1 13 2 26 5 16 22 29 59
44 29 12 53 25 55 30 2 5 -17 21 -42 34 -51 28 -54 34 -64 148 -1 13 -21 17
-21 4z"/>
<path d="M687 903 c-4 -6 -15 -9 -25 -6 -25 6 -22 -43 4 -61 17 -13 22 -11 43
10 13 13 19 24 14 24 -6 0 -14 10 -20 22 -6 13 -12 18 -16 11z"/>
<path d="M77 550 c-3 -11 -17 -24 -31 -30 -31 -11 -31 -11 -7 -39 12 -14 18
-32 15 -47 -5 -28 -5 -28 32 -9 20 10 32 11 41 3 7 -6 13 -7 13 -2 0 4 11 -3
25 -16 14 -13 24 -29 21 -35 -2 -7 9 -11 30 -11 25 1 34 6 34 18 0 9 3 23 6
32 4 11 1 16 -10 16 -9 0 -19 7 -23 15 -5 13 -8 13 -20 -5 -17 -23 -42 -27
-44 -5 -1 8 -2 21 -3 28 -1 6 4 22 12 34 9 15 10 23 2 28 -6 4 -14 4 -17 1 -9
-9 -43 14 -43 29 0 22 -27 18 -33 -5z"/>
<path d="M479 257 c-6 -13 -20 -24 -31 -24 -30 -3 -35 -13 -14 -29 12 -8 19
-26 19 -44 0 -33 13 -38 42 -16 16 12 22 12 40 0 27 -17 36 -9 25 21 -7 18 -4
29 11 47 l21 23 -33 6 c-18 4 -36 14 -41 23 -13 22 -27 20 -39 -7z"/>
</g>
</svg>
